<svg width="3426" height="3025" viewBox="0 0 3426 3025" fill="none" xmlns="http://www.w3.org/2000/svg">
<g clip-path="url(#clip0_1_57)">
<path d="M3046.5 173H386V2833.5H3046.5V173Z" fill="white"/>
<path d="M386 173V2833.5H3046.5V173H386ZM3006.6 2793.6H425.9V212.9H3006.6V2793.6Z" fill="#7A7A7A"/>
<g clip-path="url(#clip1_1_57)">
<path d="M737.087 2699.31H661.687V2554.61H570.087V2699.21H495.687V2554.61H430.487L385.687 2480.21H495.687V2121.71C495.687 2080.31 506.187 2046.51 527.287 2020.31C548.387 1994.21 579.287 1981.11 619.987 1981.11C698.087 1981.11 737.087 2028.01 737.087 2121.71V2699.31V2699.31ZM661.687 2480.31V2121.81C661.687 2095.31 658.587 2078.71 652.487 2071.91C644.987 2061.71 632.787 2056.61 615.787 2056.61C601.487 2056.61 589.987 2061.71 581.187 2071.91C573.687 2077.31 569.987 2094.01 569.987 2121.81V2480.31H661.687Z" fill="#7A7A7A"/>
</g>
<g clip-path="url(#clip2_1_57)">
<path d="M1061.01 2699.25H985.608V2391.65L894.008 2241.95V2699.35H819.608V1963.95L985.608 2253.25V1999.65H1061.01V2699.25Z" fill="#7A7A7A"/>
</g>
<g clip-path="url(#clip3_1_57)">
<path d="M1417.9 2342.78C1417.9 2490.18 1354.7 2603.58 1228.4 2682.98C1191 2706.08 1168 2717.58 1159.1 2717.58V1970.98C1213.5 1994.08 1256.9 2018.88 1289.5 2045.28C1310.6 2062.98 1331.6 2086.68 1352.7 2116.58C1396.1 2179.78 1417.9 2255.18 1417.9 2342.78ZM1343.5 2346.88C1343.5 2282.98 1325.5 2223.28 1289.5 2167.58C1277.3 2148.58 1258.9 2127.48 1234.5 2104.38V2584.18C1259.6 2561.78 1278 2541.78 1289.5 2524.08C1325.5 2471.78 1343.5 2412.68 1343.5 2346.88Z" fill="#7A7A7A"/>
</g>
<g clip-path="url(#clip4_1_57)">
<path d="M1716.7 2699.28H1605.7C1515.3 2600.08 1470.1 2482.98 1470.1 2347.88C1470.1 2220.18 1515.3 2104.08 1605.6 1999.48H1716.6C1602.6 2099.98 1545.5 2216.48 1545.5 2348.88C1545.5 2483.28 1602.6 2600.08 1716.7 2699.28Z" fill="#7A7A7A"/>
</g>
<g clip-path="url(#clip5_1_57)">
<path d="M2040.26 2594.33C2040.26 2632.33 2029.06 2661.53 2006.66 2681.93C1984.16 2702.33 1953.96 2712.53 1915.96 2712.53C1833.16 2712.53 1791.66 2673.13 1791.66 2594.33V2103.33C1791.66 2066.63 1803.16 2037.13 1826.26 2014.73C1849.36 1992.33 1879.26 1981.13 1915.86 1981.13C1951.16 1981.13 1980.76 1992.63 2004.46 2015.73C2028.26 2038.83 2040.16 2068.03 2040.16 2103.33V2594.33H2040.26ZM1965.86 2574.03V2122.83C1965.86 2078.73 1949.26 2056.63 1915.96 2056.63C1882.66 2056.63 1866.06 2078.73 1866.06 2122.83V2574.03C1866.06 2616.13 1883.06 2637.13 1916.96 2637.13C1949.56 2637.13 1965.86 2616.13 1965.86 2574.03Z" fill="#7A7A7A"/>
</g>
</g>

<line class='line-1' x1="3" y1="172.5" x2="3419" y2="172.5" stroke="#A2A2A2"/>
<line class='line-2' y1="213.5" x2="3416" y2="213.5" stroke="#A2A2A2"/>
<line class='line-3' x1="7" y1="2001.5" x2="3423" y2="2001.5" stroke="#A2A2A2"/>
<line class='line-4' x1="7" y1="2481.5" x2="3423" y2="2481.5" stroke="#A2A2A2"/>
<line class='line-5' x1="8" y1="2553.5" x2="3424" y2="2553.5" stroke="#A2A2A2"/>
<line class='line-6' x1="10" y1="2698.5" x2="3426" y2="2698.5" stroke="#A2A2A2"/>
<line class='line-7' x1="10" y1="2792.5" x2="3426" y2="2792.5" stroke="#A2A2A2"/>
<line class='line-8' x1="7" y1="2833.5" x2="3423" y2="2833.5" stroke="#A2A2A2"/>

<line class='line-9' xmlns="http://www.w3.org/2000/svg" x1="10.4352" y1="534.754" x2="1419.44" y2="3024.75" stroke="#A2A2A2"/>
<line class='line-10' xmlns="http://www.w3.org/2000/svg" x1="3.43356" y1="686.751" x2="1346.43" y2="3024.75" stroke="#A2A2A2"/>


<line class='line-11' x1="386.5" x2="386.5" y2="3025" stroke="#A2A2A2"/>
<line class='line-12' x1="386.5" x2="386.5" y2="3025" stroke="#A2A2A2"/>
<line class='line-13' x1="424.5" x2="424.5" y2="3025" stroke="#A2A2A2"/>
<line class='line-14' x1="496.5" x2="496.5" y2="3025" stroke="#A2A2A2"/>
<line class='line-15' x1="568.5" x2="568.5" y2="3025" stroke="#A2A2A2"/>
<line class='line-16' x1="662.5" x2="662.5" y2="3025" stroke="#A2A2A2"/>
<line class='line-17' x1="735.5" x2="735.5" y2="3025" stroke="#A2A2A2"/>
<line class='line-18' x1="820.5" x2="820.5" y2="3025" stroke="#A2A2A2"/>
<line class='line-19' x1="893.5" x2="893.5" y2="3025" stroke="#A2A2A2"/>
<line class='line-20' x1="985.5" x2="985.5" y2="3025" stroke="#A2A2A2"/>
<line class='line-21' x1="1062.5" x2="1062.5" y2="3025" stroke="#A2A2A2"/>
<line class='line-22' x1="1161.5" x2="1161.5" y2="3025" stroke="#A2A2A2"/>
<line class='line-23' x1="1233.5" x2="1233.5" y2="3025" stroke="#A2A2A2"/>
<line class='line-24' x1="1346.5" x2="1346.5" y2="3025" stroke="#A2A2A2"/>
<line class='line-25' x1="1419.5" x2="1419.5" y2="3025" stroke="#A2A2A2"/>
<line class='line-26' x1="1472.5" x2="1472.5" y2="3025" stroke="#A2A2A2"/>
<line class='line-27' x1="1601.5" x2="1601.5" y2="3025" stroke="#A2A2A2"/>
<line class='line-28' x1="1715.5" x2="1715.5" y2="3025" stroke="#A2A2A2"/>
<line class='line-29' x1="1791.5" x2="1791.5" y2="3025" stroke="#A2A2A2"/>
<line class='line-30' x1="1864.5" x2="1864.5" y2="3025" stroke="#A2A2A2"/>
<line class='line-31' x1="1965.5" x2="1965.5" y2="3025" stroke="#A2A2A2"/>
<line class='line-32' x1="2041.5" x2="2041.5" y2="3025" stroke="#A2A2A2"/>
<line class='line-33' x1="3009.5" x2="3009.5" y2="3025" stroke="#A2A2A2"/>
<line class='line-34' x1="3047.5" x2="3047.5" y2="3025" stroke="#A2A2A2"/>
<defs>
<clipPath id="clip0_1_57">
<rect class="bg" width="2660.5" height="2660.5" fill="white" transform="translate(386 173)"/>
</clipPath>
<clipPath id="clip1_1_57">
<rect class="word-1" width="351.4" height="718.1" fill="white" transform="translate(385.687 1981.11)"/>
</clipPath>
<clipPath id="clip2_1_57">
<rect class="word-2" width="241.4" height="735.4" fill="white" transform="translate(819.608 1963.85)"/>
</clipPath>
<clipPath id="clip3_1_57">
<rect class="word-3" width="258.7" height="746.6" fill="white" transform="translate(1159.1 1970.98)"/>
</clipPath>
<clipPath id="clip4_1_57">
<rect class="word-4" width="246.5" height="699.8" fill="white" transform="translate(1470.1 1999.48)"/>
</clipPath>
<clipPath id="clip5_1_57">
<rect class="word-5" width="248.5" height="731.4" fill="white" transform="translate(1791.66 1981.13)"/>
</clipPath>
</defs>
</svg>
